<svg width="18" height="18" fill="none" viewBox="0 0 18 18"><g clip-path="url(#a)"><path fill="#212121" d="m13.996 11.1226-1.8381-.2099a1.4411 1.4411 0 0 0-1.1869.4125l-1.3316 1.3316c-2.048-1.0421-3.7269-2.7138-4.769-4.769l1.3388-1.3389a1.4406 1.4406 0 0 0 .4125-1.1868L6.412 3.5384a1.4484 1.4484 0 0 0-1.4402-1.2809h-1.252c-.8177 0-1.498.6803-1.4473 1.498.3835 6.1803 5.3263 11.1158 11.4993 11.4993.8177.0507 1.498-.6296 1.498-1.4473v-1.252c.0072-.7309-.5428-1.346-1.2737-1.4329Z"/></g><defs><clipPath id="a"><path fill="#fff" d="M0 0h18v18H0z"/></clipPath></defs></svg>